<?xml version="1.0" encoding="UTF-8" standalone="no"?>
<svg
   width="300mm"
   height="300mm"
   viewBox="0 0 300 300"
   version="1.1"
   id="svg8"
   inkscape:version="1.1 (c68e22c387, 2021-05-23)"
   sodipodi:docname="daluis_logo_copy.svg"
   xmlns:inkscape="http://www.inkscape.org/namespaces/inkscape"
   xmlns:sodipodi="http://sodipodi.sourceforge.net/DTD/sodipodi-0.dtd"
   xmlns="http://www.w3.org/2000/svg"
   xmlns:svg="http://www.w3.org/2000/svg"
   xmlns:rdf="http://www.w3.org/1999/02/22-rdf-syntax-ns#"
   xmlns:cc="http://creativecommons.org/ns#"
   xmlns:dc="http://purl.org/dc/elements/1.1/">
  <defs
     id="defs2" />
  <sodipodi:namedview
     id="base"
     pagecolor="#ffffff"
     bordercolor="#666666"
     borderopacity="1.0"
     inkscape:pageopacity="0.0"
     inkscape:pageshadow="2"
     inkscape:zoom="0.35"
     inkscape:cx="1272.8571"
     inkscape:cy="558.57142"
     inkscape:document-units="px"
     inkscape:current-layer="layer1"
     inkscape:document-rotation="0"
     showgrid="false"
     inkscape:window-width="1366"
     inkscape:window-height="745"
     inkscape:window-x="-8"
     inkscape:window-y="-8"
     inkscape:window-maximized="1"
     inkscape:pagecheckerboard="0"
     inkscape:snap-midpoints="false"
     inkscape:snap-grids="true"
     showguides="true"
     inkscape:guide-bbox="true"
     units="mm"
     width="211mm" />
  <metadata
     id="metadata5">
    <rdf:RDF>
      <cc:Work
         rdf:about="">
        <dc:format>image/svg+xml</dc:format>
        <dc:type
           rdf:resource="http://purl.org/dc/dcmitype/StillImage" />
      </cc:Work>
    </rdf:RDF>
  </metadata>
  <g
     inkscape:label="Layer 1"
     inkscape:groupmode="layer"
     id="layer1">
    <rect
       style="fill:#262626;fill-opacity:1;stroke:none;stroke-width:0.375925;stroke-opacity:1"
       id="rect983"
       width="299.6402"
       height="299.58932"
       x="-0.60334796"
       y="0.75595278" />
    <path
       sodipodi:type="star"
       style="fill:#009dff;fill-opacity:1;stroke:#009dff;stroke-width:0.264583;stroke-opacity:1"
       id="path879"
       sodipodi:sides="6"
       sodipodi:cx="44.979168"
       sodipodi:cy="52.538689"
       sodipodi:r1="44.866264"
       sodipodi:r2="38.855328"
       sodipodi:arg1="0.52019105"
       sodipodi:arg2="1.0437898"
       inkscape:flatsided="true"
       inkscape:rounded="0.0221695"
       inkscape:randomized="0"
       d="M 83.910713,74.839283 C 83.41632,75.702375 46.126716,97.401303 45.13206,97.404692 44.137403,97.408082 6.7007785,75.963802 6.2005147,75.104099 5.7002508,74.244395 5.55323,31.101188 6.047623,30.238095 6.5420161,29.375002 43.831619,7.6760744 44.826276,7.6726848 c 0.994657,-0.00339 38.431281,21.4408902 38.931545,22.3005942 0.500264,0.859703 0.647285,44.002911 0.152892,44.866004 z"
       transform="matrix(3.3106986,0,0,2.9232377,-2.9890286,-7.2175379)" />
    <path
       transform="matrix(2.8953708,0,0,2.5645223,15.692063,12.158053)"
       d="M 83.910713,74.839283 C 83.41632,75.702375 46.126716,97.401303 45.13206,97.404692 44.137403,97.408082 6.7007785,75.963802 6.2005147,75.104099 5.7002508,74.244395 5.55323,31.101188 6.047623,30.238095 6.5420161,29.375002 43.831619,7.6760744 44.826276,7.6726848 c 0.994657,-0.00339 38.431281,21.4408902 38.931545,22.3005942 0.500264,0.859703 0.647285,44.002911 0.152892,44.866004 z"
       inkscape:randomized="0"
       inkscape:rounded="0.0221695"
       inkscape:flatsided="true"
       sodipodi:arg2="1.0437898"
       sodipodi:arg1="0.52019105"
       sodipodi:r2="38.855328"
       sodipodi:r1="44.866264"
       sodipodi:cy="52.538689"
       sodipodi:cx="44.979168"
       sodipodi:sides="6"
       id="path879-9"
       style="fill:#262626;fill-opacity:1;stroke:#262626;stroke-width:0.264583;stroke-opacity:1"
       sodipodi:type="star" />
    <rect
       style="fill:#009dff;fill-opacity:1;stroke:#009dff;stroke-width:0.125261;stroke-opacity:1"
       id="rect898"
       width="17.940445"
       height="241.48787"
       x="136.87035"
       y="26.918791" />
    <rect
       style="fill:#009dff;fill-opacity:1;stroke:#009dff;stroke-width:0.365162;stroke-opacity:1"
       id="rect944"
       width="32.118286"
       height="87.48201"
       x="228.59888"
       y="74.046227" />
    <path
       id="rect946"
       style="fill:#ff600d;fill-opacity:1;stroke:none;stroke-width:0.211325;stroke-opacity:1"
       d="M 76.179262,85.024507 53.266743,123.86583 H 70.612249 L 84.85201,99.726461 99.091782,123.86583 H 116.43728 L 93.524763,85.024507 Z" />
    <path
       d="M 77.656825,206.2971 54.744308,167.45577 h 17.345507 l 14.239761,24.13937 14.239764,-24.13937 h 17.34551 L 95.00233,206.2971 Z"
       style="fill:#ff600d;fill-opacity:1;stroke:none;stroke-width:0.211325;stroke-opacity:1"
       id="rect946-2" />
    <rect
       style="fill:#ff600d;fill-opacity:1;stroke:none;stroke-width:0.174763;stroke-opacity:1"
       id="rect981"
       width="75.843422"
       height="14.21634"
       x="50.974495"
       y="115.36121"
       transform="matrix(0.96604135,0.2583875,0,1,0,0)" />
    <path
       d="m 187.671,45.992594 v 18.627952 h 0.007 v 116.391584 28.65003 l 42.77782,-24.52537 -0.0238,-4.12466 V 60.475719 H 207.74256 V 45.992594 Z"
       style="fill:#009dff;fill-opacity:1;stroke-width:0.180679"
       id="rect16" />
  </g>
</svg>
